# xmcd
#
# Track frame offsets:
# 150
# 25000
# 50160
# 66875
# 88970
# 113055
# 124690
# 146805
# 199548
# 235958
# 261308
# 295433
# 315330
#
# Disc length: 4722 seconds
#
#
# Revision: 0
# Processed by: cddbd v1.5.1PL2 Copyright (c) Steve Scherf et al.
# Submitted via: FreeRIP 2.60 
#
DISCID=c412700d
DTITLE=Albert King - Live at the L.A. Forum 08-20-79
DYEAR=1979
DGENRE=Blues
TTITLE0=01 Got To Be Changes Made
TTITLE1=02 I'll Play The Blues For You
TTITLE2=03 Killing Floor
TTITLE3=04 Angel Of Mercy
TTITLE4=05 Matchbox Blues
TTITLE5=06 Watermelon Man
TTITLE6=07 Breakin Up Somebody's Home
TTITLE7=08 Call It Stormy Monday
TTITLE8=09 Watermelon Man
TTITLE9=10 Why Are You So Mean To Me?
TTITLE10=11 I Get Evil
TTITLE11=12 Personal Manger
TTITLE12=13 Bo-rn Under A Bad Sign
EXTD=
EXTT0=
EXTT1=
EXTT2=
EXTT3=
EXTT4=
EXTT5=
EXTT6=
EXTT7=
EXTT8=
EXTT9=
EXTT10=
EXTT11=
EXTT12=
PLAYORDER=
